# xmcd CD database file
#
# Track frame offsets:
#	150
#	22068
#	43040
#	63616
#	86882
#	114003
#	137828
#	160548
#	181534
#	206494
#	226792
#
# Disc length: 3608 seconds
#
# Revision: 0
# Processed by: cddbd v1.5.2PL0 Copyright (c) Steve Scherf et al.
# Submitted via: CDex 1.70beta2
#
DISCID=860e160b
DTITLE=SYBREED - GOD IS AN AUTOMATION
DYEAR=2012
DGENRE=Industrial Metal
TTITLE0=POSTHUMAN MANIFESTO 
TTITLE1=NO WISDOM BRINGS SOLACE 
TTITLE2=THE LINE OF LEAST RESISTANCE 
TTITLE3=RED NOVA IGNITION 
TTITLE4=GOD IS AN AUTOMATION
TTITLE5=HIGHTECH VERSUS LOWLIFE 
TTITLE6=DOWNFALL INC. 
TTITLE7=CHALLENGER 
TTITLE8=A RADIANT DAYBREAK 
TTITLE9=INTO THE BLACKEST LIGHT 
TTITLE10=DESTRUCTION AND BLISS 
EXTD=YEAR: 2012
EXTT0=
EXTT1=
EXTT2=
EXTT3=
EXTT4=
EXTT5=
EXTT6=
EXTT7=
EXTT8=
EXTT9=
EXTT10=
PLAYORDER=
